# xmcd
#
# Track frame offsets: 
#        150
#        14560
#        35250
#        49071
#        63981
#        84477
#        102348
#        113386
#        128541
#        140202
#        154453
#        170598
#        186372
#        206761
#
# Disc length: 2955 seconds
#
# Revision: 1
# Processed by: cddbd v1.5.2PL0 Copyright (c) Steve Scherf et al.
# Submitted via: ExactAudioCopyFreeDBPlugin 1.0
#
DISCID=c30b890e
DTITLE=The Duke Robillard Band - Low Down and Tore Up
DYEAR=2011
DGENRE=Blues
TTITLE0=Quicksand
TTITLE1=Train Fare Home
TTITLE2=Mercy Mercy Mama
TTITLE3=Overboard
TTITLE4=Blues After Hours
TTITLE5=Want Ad Blues
TTITLE6=Do Unto Others
TTITLE7=It's Alright
TTITLE8=Let Me Play With Your Poodle
TTITLE9=Tool Bag Boogie
TTITLE10=What's Wrong
TTITLE11=I Ain't Mad At You
TTITLE12=The 12 Year Old Boy
TTITLE13=Later For You Baby
EXTD=
EXTT0=
EXTT1=
EXTT2=
EXTT3=
EXTT4=
EXTT5=
EXTT6=
EXTT7=
EXTT8=
EXTT9=
EXTT10=
EXTT11=
EXTT12=
EXTT13=
PLAYORDER=
